<svg xmlns="http://www.w3.org/2000/svg" width="60" height="60" fill="none" viewBox="0 0 60 60"><g clip-path="url(#clip0)"><path fill="#091F2C" d="M49.8327 28.3164H47.7997C47.6726 28.3164 47.5667 28.4223 47.5667 28.5494V33.7801C47.5667 33.886 47.482 33.9495 47.3973 33.9495H41.1078C41.0019 33.9495 40.9383 33.8648 40.9383 33.7801V28.5494C40.9383 28.4223 40.8325 28.3164 40.7054 28.3164H38.6724C38.5453 28.3164 38.4395 28.4223 38.4395 28.5494V41.8909C38.4395 42.0179 38.5453 42.1238 38.6724 42.1238H40.7266C40.8536 42.1238 40.9595 42.0179 40.9595 41.8909V36.6602C40.9595 36.5543 41.0442 36.4907 41.1289 36.4907H47.4185C47.5244 36.4907 47.5879 36.5754 47.5879 36.6602V41.8909C47.5879 42.0179 47.6938 42.1238 47.8209 42.1238H49.875C50.0021 42.1238 50.108 42.0179 50.108 41.8909V28.5494C50.0656 28.4223 49.9597 28.3164 49.8327 28.3164Z"/><path fill="#091F2C" d="M35.474 24.9069V22.9163C35.474 22.7892 35.3681 22.6834 35.2411 22.6834H24.6314C24.5043 22.6834 24.3984 22.7892 24.3984 22.9163V36.2578C24.3984 36.3849 24.5043 36.4908 24.6314 36.4908H35.2411C35.3681 36.4908 35.474 36.3849 35.474 36.2578V34.2884C35.474 34.1613 35.3681 34.0554 35.2411 34.0554H27.0879C26.982 34.0554 26.9185 33.9707 26.9185 33.886V31.0271C26.9185 30.9212 27.0032 30.8577 27.0879 30.8577H33.3775C33.5046 30.8577 33.6104 30.7518 33.6104 30.6247V28.5917C33.6104 28.4647 33.5046 28.3588 33.3775 28.3588H27.0879C26.982 28.3588 26.9185 28.2741 26.9185 28.1894V25.3305C26.9185 25.2246 27.0032 25.1611 27.0879 25.1611H35.2411C35.3681 25.1399 35.474 25.034 35.474 24.9069Z"/><path fill="#091F2C" d="M15.5899 17.0291H12.7945C12.6463 17.0291 12.5192 17.1138 12.4557 17.2409L6.67434 30.2435C6.54727 30.5188 6.75904 30.8365 7.05552 30.8365H21.35C21.6465 30.8365 21.8582 30.5188 21.7312 30.2435L15.9287 17.2409C15.8652 17.1138 15.7381 17.0291 15.5899 17.0291ZM10.2956 28.2105L14.0439 19.8033C14.1075 19.6762 14.2769 19.6762 14.3404 19.8033L18.0887 28.2105C18.1523 28.3376 18.0464 28.4647 17.9193 28.4647H10.465C10.338 28.4647 10.2321 28.3376 10.2956 28.2105Z"/><path fill="#00A3E0" d="M42.8017 5.19116C56.5033 12.2643 61.8822 29.1212 54.8091 42.8227C47.7572 56.5454 30.9003 61.9243 17.1776 54.8512L16.2246 56.6936C30.9426 64.2962 49.049 58.5148 56.6515 43.7968C64.2541 29.0788 58.4727 10.9725 43.7547 3.36993L42.8017 5.19116Z"/><path fill="#FA4616" d="M17.1773 54.8512C3.47583 47.7781 -1.90313 30.9212 5.16999 17.1985C12.2431 3.47583 29.1 -1.88195 42.8227 5.19116L43.7757 3.34877C29.0576 -4.25378 10.9513 1.52754 3.34877 16.2456C-4.25378 30.9636 1.52754 49.0699 16.2456 56.6724L17.1773 54.8512Z"/></g><defs><clipPath id="clip0"><rect width="60" height="60" fill="#fff"/></clipPath></defs></svg>