<svg xmlns="http://www.w3.org/2000/svg" xmlns:xlink="http://www.w3.org/1999/xlink" id="svg30388" width="1200" height="800" fill-rule="evenodd" clip-rule="evenodd" image-rendering="optimizeQuality" shape-rendering="geometricPrecision" text-rendering="geometricPrecision" version="1.1" viewBox="-97.397 -171.832 844.103 1030.994" xml:space="preserve"><defs id="defs30346"><linearGradient id="id0" x1="276.732" x2="47.173" y1="261.613" y2="267.593" gradientUnits="userSpaceOnUse"><stop id="stop30336" offset="0" stop-color="#ffe200"/><stop id="stop30338" offset="1" stop-color="#f08300"/></linearGradient><linearGradient id="id1" x1="375.449" x2="600.253" y1="264.603" y2="264.603" gradientUnits="userSpaceOnUse" xlink:href="#id0"/><linearGradient id="id2" x1="361.323" x2="565.169" y1="219.319" y2="77.597" gradientUnits="userSpaceOnUse" xlink:href="#id0"/><linearGradient id="id3" x1="288.516" x2="84.103" y1="220.128" y2="77.621" gradientUnits="userSpaceOnUse" xlink:href="#id0"/><linearGradient id="id4" x1="361.027" x2="434.366" y1="212.223" y2="-7.066" gradientUnits="userSpaceOnUse" xlink:href="#id0"/><linearGradient id="id5" x1="288.176" x2="214.741" y1="212.179" y2="-7.022" gradientUnits="userSpaceOnUse" xlink:href="#id0"/><linearGradient id="linearGradient30394" x1="276.732" x2="47.173" y1="261.613" y2="267.593" gradientUnits="userSpaceOnUse" xlink:href="#id0"/><style id="style30334" type="text/css">.fil8{fill:#000;fill-rule:nonzero}</style></defs><g id="Ebene_x0020_1"><path id="path30349" fill="#fff" fill-rule="nonzero" d="M559.573 258.779c0 128.669-104.328 232.994-232.998 232.994-128.682 0-232.994-104.325-232.994-232.994 0-128.669 104.312-232.994 232.994-232.994 128.67 0 232.998 104.324 232.998 232.994z"/><path id="path30351" fill="#c7000d" fill-rule="nonzero" d="M324.57 276.315L89.543 342.841c6.832 26.11-3.755 61.159 11.552 82.354 16.011 22.167 54.998 22.423 77.001 38.635 22.084 16.223 34.228 53.505 60.847 62.203 25.882 8.498 57.852-14.038 86.604-14.066 27.831-.056 58.869 22.68 83.99 14.686 26.379-8.502 38.535-45.5 60.606-61.354 22.156-15.988 61.115-15.86 77.314-37.819 16.223-22 3.146-57.852 11.748-84.37L324.57 276.315z"/><path id="path30353" fill="url(#linearGradient30394)" d="M274.867 258.723c0-3.698-2.15-6.849-5.284-8.346L88.145 189.84c-9.899 24.657-39.103 47.277-39.047 74.8.072 27.507 31.11 49.89 39.455 74.728l180.705-72.114c3.303-1.429 5.608-4.691 5.608-8.53z"/><path id="path30355" fill="url(#id3)" d="M276.176 232.793h.096c3.526-.032 6.909-2.045 8.478-5.46 1.269-2.741 1.017-5.792-.296-8.25L177.147 64.958c-22.58 14.077-58.853 14.854-74.36 35.936-16.183 21.9-4.943 58.757-13.301 85.264l186.69 46.636z"/><path id="path30357" fill="url(#id5)" d="M309.911 209.781a9.137 9.137 0 005.592-7.445l7.021-186.041c-27.267-.99-57.276-22.412-81.833-14.575-26.25 8.446-38.407 45.176-60.294 61.087L299.844 207.9c2.614 2.53 6.553 3.374 10.067 1.881z"/><path id="path30359" fill="url(#id1)" d="M375.449 258.543v.348a9.298 9.298 0 005.592 8.362l179.73 72.114c8.333-24.837 39.399-47.22 39.442-74.728.04-27.523-29.148-50.143-39.003-74.8l-180.466 60.538c-3.086 1.473-5.227 4.543-5.295 8.166z"/><path id="path30361" fill="url(#id2)" d="M373.516 231.96h.1l186.254-45.804c-8.39-26.506 2.81-63.364-13.317-85.263-15.547-21.083-51.808-21.86-74.376-35.937L365.351 218.238c-1.34 2.486-1.537 5.52-.28 8.246a9.36 9.36 0 008.446 5.476z"/><path id="path30363" fill="url(#id4)" d="M339.384 209.781c-3.162-1.33-5.184-4.239-5.592-7.445l-7.3-186.041c27.294-.99 57.611-22.412 82.14-14.575 26.238 8.446 38.423 45.176 60.27 61.087L349.48 207.9a9.292 9.292 0 01-10.095 1.881z"/><path id="path30365" d="M0 684.763h24.557l3.05-21.9H42.07c17.676 0 30.625-10.73 33.692-28.255 3.598-20.646-8.502-28.428-31.138-28.428H10.847L0 684.763zm51.756-51.3c-1.457 7.217-5.648 12.045-13.67 12.045h-7.78l2.977-22.86h6.653c8.742 0 13.229 3.654 11.82 10.815z" class="fil8"/><path id="path30367" d="M140.59 630.469c-5.252-5.408-13.513-8.134-24.585-8.134-11.608 0-21.067 2.894-28.06 8.658-7.044 5.804-11.211 12.99-12.384 21.435l-.549 4.011c-1.329 9.615 1.157 17.056 7.414 22.127 6.016 4.9 14.754 7.37 25.938 7.37 5.736 0 10.931-.409 15.478-1.297 4.588-.82 8.894-2.122 12.81-3.787l1.228-.52.18-1.273 1.301-9.459.396-2.826-2.754.973c-4.239 1.457-8.345 2.602-12.244 3.306-3.883.72-7.653 1.09-11.24 1.09-5.223 0-9.318-1.118-12.184-3.363-2.358-1.794-3.363-5.04-3.05-9.615h47.445l.268-1.977.72-5.296c1.213-8.742-.832-15.96-6.128-21.423zm-40.472 16.664c1.045-4.027 2.714-6.95 5.043-8.67 2.866-2.118 5.816-3.135 9.063-3.135 3.742 0 6.496 1.017 8.446 3.134 1.665 1.766 2.501 4.688 2.501 8.67h-25.053z" class="fil8"/><path id="path30369" d="M197.397 623.905h-18.429l2.558-17.724H158.69l-8.498 57.712c-.949 6.82.424 12.172 4.039 15.903 3.57 3.683 8.866 5.688 15.743 5.564 10.775-.2 16.507-2.742 16.507-2.742l1.794-15.167s-5.14 1.613-8.923 1.738c-6.664.24-6.272-4.151-5.948-6.621l2.982-22.524h18.47l2.541-16.139z" class="fil8"/><path id="path30371" d="M317.228 630.513c-5.86-5.44-14.586-8.177-26.01-8.177-11.3 0-20.787 2.725-28.16 8.149-7.509 5.492-11.972 12.861-13.173 21.803l-.524 3.615c-1.285 9.162 1.173 16.591 7.273 22.011 5.988 5.324 14.73 8.022 25.954 8.022 11.296 0 20.714-2.61 28.031-7.85 7.414-5.312 11.86-12.753 13.174-22.183l.496-3.615c1.229-8.898-1.173-16.239-7.061-21.775zm-43.394 23.2c.917-6.78 2.794-11.552 5.576-14.122 2.754-2.625 6.016-3.87 9.887-3.87 3.726 0 6.62 1.2 8.866 3.658 2.133 2.414 2.754 7.23 1.765 14.334l-.124.833c-1.005 7.44-3.01 12.468-5.764 14.63-2.938 2.274-6.14 3.386-9.827 3.386-4.083 0-7.06-1.112-9.078-3.414-1.357-1.553-2.698-5.324-1.43-14.602l.13-.833z" class="fil8"/><path id="path30373" d="M401.331 607.889c-1.95-.876-4.671-1.537-8.23-2.101-3.462-.54-7.865-.793-13.077-.793-12.356 0-23.344 3.603-32.562 10.692-9.323 7.172-14.915 16.743-16.536 28.536l-.38 2.981c-1.765 12.65 1.073 22.396 8.442 28.989 7.229 6.452 17.368 9.742 30.12 9.742 5 0 9.52-.336 13.47-1.113 4.083-.764 6.905-1.585 8.658-2.485l1.089-.536.168-1.173 1.537-11.212.396-2.726-2.71.849c-1.95.592-4.59 1.285-7.837 2.001-3.178.709-7.033 1.049-11.468 1.049-6.28 0-10.788-1.922-13.794-5.82-3.05-3.883-3.983-10.14-2.81-18.525l.125-1.061c1.088-7.793 3.898-13.978 8.373-18.345 4.423-4.375 9.971-6.48 16.932-6.48 3.855 0 7.217.268 10.011.82 2.782.565 4.96 1.157 6.513 1.793l2.525 1.057.413-2.878 1.565-11.424.2-1.313-1.133-.524z" class="fil8"/><path id="path30375" d="M467.109 627.787c-2.866-3.362-7.513-5.071-13.854-5.071-6.128 0-11.524 1.104-15.999 3.278-2.513 1.229-4.76 2.542-6.72 3.955l3.022-21.82.268-1.949h-23.4l-.253 1.95-10.295 74.66-.284 1.973h23.372l.253-1.974 5.535-40.02c1.441-1.128 3.162-2.077 5.156-2.81a21.042 21.042 0 017.3-1.284c2.219 0 3.784.424 4.548 1.24.76.765 1.017 1.698.86 2.894l-5.52 39.98-.3 1.974h23.373l.296-1.974 5.492-39.935c.92-6.637-.028-11.709-2.85-15.067z" class="fil8"/><path id="path30377" d="M575.092 627.787c-2.838-3.362-7.501-5.071-13.826-5.071-6.156 0-11.536 1.104-16.027 3.278-2.502 1.229-4.759 2.542-6.737 3.955l.437-5.592h-23.384l-7.694 58.432-.284 1.974h23.372l.297-1.974 5.491-40.02c1.453-1.128 3.19-2.077 5.184-2.81a21.091 21.091 0 017.301-1.284c2.19 0 3.754.424 4.531 1.24.737.765 1.033 1.698.86 2.894l-5.52 39.98-.267 1.974h23.356l.308-1.974 5.48-39.935c.932-6.637-.04-11.709-2.878-15.067z" class="fil8"/><path id="path30379" d="M486.55 616.984c2.093 1.905 4.803 2.882 8.021 2.882 3.29 0 6.257-.977 8.842-2.882 2.766-1.962 4.376-4.52 4.788-7.553.392-2.91-.497-5.408-2.686-7.402-2.102-1.905-4.771-2.85-8.078-2.85-3.234 0-6.196.945-8.826 2.822-2.75 1.994-4.335 4.492-4.783 7.43-.412 3.05.508 5.591 2.722 7.553z" class="fil8"/><path id="polygon30381" d="M482.315 625.882l-7.849 56.908-.268 1.973h23.368l.268-1.973 7.853-56.908.281-1.977h-23.385z" class="fil8"/><path id="path30383" d="M253.276 622.492s-10.351-1.933-26.674 10.631l1.128-9.218h-22.54l-8.401 60.858h23.356l2.19-15.615s.848-9.546 5.351-14.97c4.464-5.42 7.077-8.698 20.49-9.883l5.1-21.803z" class="fil8"/><path id="path30385" d="M645.865 624.878c-13.457-13.105-53.517-.877-53.517-.877l-1.938 14.022c11.212-6.296 27.892-5.392 32.847-3.006 4.195 2.005 2.61 6.072 2.062 8.798-4.491-1.413-39.58-5.832-45.02 21.251-4.263 21.01 16.692 24.345 28.809 21.283 17.524-4.463 21.562-4.463 32.154-.129-.056 0 6.736-40.612 6.736-40.612 1.073-7.881 3.135-15.618-2.133-20.73zm-24.953 45.796l-6.833 1.469c-9.178 1.072-13.317-3.263-11.892-9.39 2.641-11.453 21.322-6.33 21.322-6.33l-2.597 14.25z" class="fil8"/></g></svg>